<svg xmlns="http://www.w3.org/2000/svg" xmlns:xlink="http://www.w3.org/1999/xlink" width="1920" zoomAndPan="magnify" viewBox="0 0 1440 225" height="300" preserveAspectRatio="xMidYMid meet" version="1.0"><defs><filter x="0%" y="0%" width="100%" height="100%" id="id1"><feColorMatrix values="0 0 0 0 1 0 0 0 0 1 0 0 0 0 1 0 0 0 1 0" color-interpolation-filters="sRGB"/></filter><g/><mask id="id2"><g filter="url(#id1)"><rect x="-144" width="1728" fill="#000000" y="-22.5" height="270" fill-opacity="0.5686"/></g></mask><clipPath id="id3"><path d="M 0.109375 1.082031 L 779.359375 1.082031 L 779.359375 62.582031 L 0.109375 62.582031 Z M 0.109375 1.082031 " clip-rule="nonzero"/></clipPath><clipPath id="id4"><rect x="0" width="781" y="0" height="63"/></clipPath><mask id="id5"><g filter="url(#id1)"><rect x="-144" width="1728" fill="#000000" y="-22.5" height="270" fill-opacity="0.4784"/></g></mask><clipPath id="id6"><rect x="0" width="552" y="0" height="100"/></clipPath></defs><g mask="url(#id2)"><g transform="matrix(1, 0, 0, 1, 648, 73)"><g clip-path="url(#id4)"><g clip-path="url(#id3)"><path fill="#8c52ff" d="M 0.109375 1.082031 L 779.359375 1.082031 L 768.816406 31.832031 L 779.359375 62.582031 L 0.109375 62.582031 L 0.109375 1.082031 " fill-opacity="1" fill-rule="nonzero"/></g></g></g></g><g mask="url(#id5)"><g transform="matrix(1, 0, 0, 1, 72, 62)"><g clip-path="url(#id6)"><g fill="#1e1a1e" fill-opacity="1"><g transform="translate(0.621091, 80.025856)"><g><path d="M 44.09375 1.757812 C 63.117188 1.757812 78.070312 -10.996094 81.589844 -30.019531 L 64.765625 -30.019531 C 62.015625 -20.34375 54.210938 -14.183594 44.09375 -14.183594 C 31.007812 -14.183594 21.222656 -24.519531 21.222656 -38.375 C 21.222656 -52.230469 31.007812 -62.675781 44.09375 -62.675781 C 53.769531 -62.675781 61.464844 -56.957031 64.65625 -47.941406 L 81.257812 -47.941406 C 77.738281 -66.195312 62.785156 -78.621094 44.09375 -78.621094 C 21.441406 -78.621094 4.289062 -61.246094 4.289062 -38.375 C 4.289062 -15.613281 21.441406 1.757812 44.09375 1.757812 Z M 44.09375 1.757812 "/></g></g></g><g fill="#1e1a1e" fill-opacity="1"><g transform="translate(85.397924, 80.025856)"><g><path d="M 59.816406 0 L 77.960938 0 L 46.84375 -76.96875 L 31.117188 -76.96875 L 0.878906 0 L 18.582031 0 L 23.859375 -14.515625 L 54.429688 -14.515625 Z M 39.144531 -56.628906 L 49.261719 -29.027344 L 29.027344 -29.027344 Z M 39.144531 -56.628906 "/></g></g></g><g fill="#1e1a1e" fill-opacity="1"><g transform="translate(164.347036, 80.025856)"><g><path d="M 8.796875 0 L 25.398438 0 L 25.398438 -76.96875 L 8.796875 -76.96875 Z M 8.796875 0 "/></g></g></g><g fill="#1e1a1e" fill-opacity="1"><g transform="translate(198.653629, 80.025856)"><g><path d="M 45.300781 1.757812 C 68.722656 1.757812 86.207031 -15.503906 86.207031 -38.484375 C 86.207031 -61.355469 68.722656 -78.621094 45.300781 -78.621094 C 21.773438 -78.621094 4.179688 -61.246094 4.179688 -38.484375 C 4.179688 -15.613281 21.773438 1.757812 45.300781 1.757812 Z M 45.300781 -13.964844 C 31.558594 -13.964844 21.113281 -24.628906 21.113281 -38.484375 C 21.113281 -52.339844 31.558594 -62.894531 45.300781 -62.894531 C 59.046875 -62.894531 69.273438 -52.449219 69.273438 -38.484375 C 69.273438 -24.519531 59.046875 -13.964844 45.300781 -13.964844 Z M 45.300781 -13.964844 "/></g></g></g><g fill="#1e1a1e" fill-opacity="1"><g transform="translate(289.148216, 80.025856)"><g/></g></g><g fill="#1e1a1e" fill-opacity="1"><g transform="translate(315.427947, 80.025856)"><g><path d="M 51.128906 0 L 69.714844 0 L 52.667969 -29.027344 C 61.246094 -33.207031 66.746094 -41.34375 66.746094 -51.460938 C 66.746094 -66.304688 55.199219 -76.96875 39.804688 -76.96875 L 8.796875 -76.96875 L 8.796875 0 L 25.398438 0 L 25.398438 -26.167969 L 36.066406 -26.167969 Z M 25.398438 -61.578125 L 38.703125 -61.578125 C 45.742188 -61.578125 49.8125 -57.289062 49.8125 -51.570312 C 49.8125 -45.742188 45.742188 -41.5625 38.703125 -41.5625 L 25.398438 -41.5625 Z M 25.398438 -61.578125 "/></g></g></g><g fill="#1e1a1e" fill-opacity="1"><g transform="translate(388.109508, 80.025856)"><g><path d="M 25.398438 -15.394531 L 25.398438 -31.226562 L 52.121094 -31.226562 L 52.121094 -46.292969 L 25.398438 -46.292969 L 25.398438 -61.578125 L 54.980469 -61.578125 L 54.980469 -76.96875 L 8.796875 -76.96875 L 8.796875 0 L 56.1875 0 L 56.1875 -15.394531 Z M 25.398438 -15.394531 "/></g></g></g><g fill="#1e1a1e" fill-opacity="1"><g transform="translate(449.575448, 80.025856)"><g><path d="M 8.796875 0 L 25.398438 0 L 25.398438 -76.96875 L 8.796875 -76.96875 Z M 8.796875 0 "/></g></g></g><g fill="#1e1a1e" fill-opacity="1"><g transform="translate(483.882041, 80.025856)"><g><path d="M 34.308594 1.539062 C 50.25 1.539062 63.445312 -6.488281 63.445312 -23.089844 C 63.445312 -40.355469 48.710938 -43.984375 37.054688 -46.953125 C 28.808594 -48.929688 22.210938 -50.582031 22.210938 -55.96875 C 22.210938 -61.027344 27.597656 -63.335938 32.988281 -63.335938 C 39.253906 -63.335938 44.753906 -60.257812 44.753906 -53.550781 L 61.136719 -53.550781 C 61.136719 -68.941406 51.128906 -78.398438 33.425781 -78.398438 C 16.382812 -78.398438 5.496094 -70.042969 5.496094 -55.308594 C 5.496094 -38.703125 19.574219 -35.296875 31.226562 -32.4375 C 39.585938 -30.566406 46.621094 -28.917969 46.621094 -22.871094 C 46.621094 -17.152344 40.464844 -13.855469 34.195312 -13.855469 C 27.378906 -13.855469 21.222656 -17.484375 21.222656 -24.851562 L 4.398438 -24.851562 C 4.398438 -8.355469 16.605469 1.539062 34.308594 1.539062 Z M 34.308594 1.539062 "/></g></g></g></g></g></g></svg>